<svg xmlns="http://www.w3.org/2000/svg" width="15.427" height="15.387" viewBox="0 0 15.427 15.387">
  <path id="Path_97" data-name="Path 97" d="M13.61,115.387a1.819,1.819,0,0,0,1.817-1.817v-2.423a.605.605,0,0,0-.414-.574l-3.626-1.212a.607.607,0,0,0-.528.07l-1.542,1.028a10.662,10.662,0,0,1-4.349-4.349L6,104.568a.606.606,0,0,0,.07-.528l-1.212-3.626A.605.605,0,0,0,4.281,100H1.817A1.812,1.812,0,0,0,0,101.809C0,108.788,6.63,115.387,13.61,115.387Z" transform="translate(0 -100)" fill="#b3b7c0"/>
</svg>
