<svg id="envelope" xmlns="http://www.w3.org/2000/svg" width="18.403" height="13.802" viewBox="0 0 18.403 13.802">
  <g id="Group_103" data-name="Group 103" transform="translate(0 0)">
    <g id="Group_102" data-name="Group 102">
      <path id="Path_94" data-name="Path 94" d="M7.049,65.12c2.526,2.139,6.958,5.9,8.26,7.076a.769.769,0,0,0,1.113,0c1.3-1.175,5.736-4.938,8.261-7.077a.383.383,0,0,0,.054-.529,1.523,1.523,0,0,0-1.2-.591H8.2a1.522,1.522,0,0,0-1.2.591A.383.383,0,0,0,7.049,65.12Z" transform="translate(-6.665 -64)" fill="#b3b7c0"/>
      <path id="Path_95" data-name="Path 95" d="M18.18,126.447a.382.382,0,0,0-.409.055c-2.8,2.374-6.376,5.418-7.5,6.432a1.552,1.552,0,0,1-2.14,0c-1.2-1.08-5.213-4.493-7.5-6.431A.383.383,0,0,0,0,126.8v9.642a1.535,1.535,0,0,0,1.534,1.534H16.869a1.535,1.535,0,0,0,1.534-1.534V126.8A.383.383,0,0,0,18.18,126.447Z" transform="translate(0 -124.168)" fill="#b3b7c0"/>
    </g>
  </g>
</svg>
